{
    "asset" : {
        "generator" : "Khronos glTF Blender I/O v1.7.33",
        "version" : "2.0"
    },
    "scene" : 0,
    "scenes" : [
        {
            "name" : "Scene",
            "nodes" : [
                0
            ]
        }
    ],
    "nodes" : [
        {
            "mesh" : 0,
            "name" : "Cube"
        }
    ],
    "materials" : [
        {
            "doubleSided" : true,
            "name" : "Material",
            "pbrMetallicRoughness" : {
                "baseColorFactor" : [
                    0.8268364071846008,
                    0.7589409351348877,
                    1,
                    1
                ],
                "metallicFactor" : 0,
                "roughnessFactor" : 0.4000000059604645
            }
        },
        {
            "doubleSided" : true,
            "name" : "\u041c\u0430\u0442\u0435\u0440\u0438\u0430\u043b",
            "pbrMetallicRoughness" : {
                "baseColorFactor" : [
                    0,
                    0.18221665918827057,
                    0.8000000715255737,
                    1
                ],
                "metallicFactor" : 0,
                "roughnessFactor" : 0.5
            }
        },
        {
            "doubleSided" : true,
            "name" : "\u041c\u0430\u0442\u0435\u0440\u0438\u0430\u043b.001",
            "pbrMetallicRoughness" : {
                "baseColorFactor" : [
                    0.0006195927853696048,
                    0.8000000715255737,
                    0.05445889011025429,
                    1
                ],
                "metallicFactor" : 0,
                "roughnessFactor" : 0.5
            }
        }
    ],
    "meshes" : [
        {
            "name" : "Cube",
            "primitives" : [
                {
                    "attributes" : {
                        "POSITION" : 0,
                        "NORMAL" : 1,
                        "TEXCOORD_0" : 2
                    },
                    "indices" : 3,
                    "material" : 0
                },
                {
                    "attributes" : {
                        "POSITION" : 4,
                        "NORMAL" : 5,
                        "TEXCOORD_0" : 6
                    },
                    "indices" : 7,
                    "material" : 1
                },
                {
                    "attributes" : {
                        "POSITION" : 8,
                        "NORMAL" : 9,
                        "TEXCOORD_0" : 10
                    },
                    "indices" : 11,
                    "material" : 2
                }
            ]
        }
    ],
    "accessors" : [
        {
            "bufferView" : 0,
            "componentType" : 5126,
            "count" : 4510,
            "max" : [
                8.303780555725098,
                53.154022216796875,
                8.065295219421387
            ],
            "min" : [
                -8.205997467041016,
                -52.98291015625,
                -8.131175994873047
            ],
            "type" : "VEC3"
        },
        {
            "bufferView" : 1,
            "componentType" : 5126,
            "count" : 4510,
            "type" : "VEC3"
        },
        {
            "bufferView" : 2,
            "componentType" : 5126,
            "count" : 4510,
            "type" : "VEC2"
        },
        {
            "bufferView" : 3,
            "componentType" : 5123,
            "count" : 15744,
            "type" : "SCALAR"
        },
        {
            "bufferView" : 4,
            "componentType" : 5126,
            "count" : 3731,
            "max" : [
                10.66547679901123,
                53.49951171875,
                10.490872383117676
            ],
            "min" : [
                -10.606669425964355,
                -53.299339294433594,
                -10.432878494262695
            ],
            "type" : "VEC3"
        },
        {
            "bufferView" : 5,
            "componentType" : 5126,
            "count" : 3731,
            "type" : "VEC3"
        },
        {
            "bufferView" : 6,
            "componentType" : 5126,
            "count" : 3731,
            "type" : "VEC2"
        },
        {
            "bufferView" : 7,
            "componentType" : 5123,
            "count" : 12792,
            "type" : "SCALAR"
        },
        {
            "bufferView" : 8,
            "componentType" : 5126,
            "count" : 3936,
            "max" : [
                9.4657621383667,
                53.09735107421875,
                9.843440055847168
            ],
            "min" : [
                -10.14229679107666,
                -53.299339294433594,
                -9.50045108795166
            ],
            "type" : "VEC3"
        },
        {
            "bufferView" : 9,
            "componentType" : 5126,
            "count" : 3936,
            "type" : "VEC3"
        },
        {
            "bufferView" : 10,
            "componentType" : 5126,
            "count" : 3936,
            "type" : "VEC2"
        },
        {
            "bufferView" : 11,
            "componentType" : 5123,
            "count" : 12792,
            "type" : "SCALAR"
        }
    ],
    "bufferViews" : [
        {
            "buffer" : 0,
            "byteLength" : 54120,
            "byteOffset" : 0
        },
        {
            "buffer" : 0,
            "byteLength" : 54120,
            "byteOffset" : 54120
        },
        {
            "buffer" : 0,
            "byteLength" : 36080,
            "byteOffset" : 108240
        },
        {
            "buffer" : 0,
            "byteLength" : 31488,
            "byteOffset" : 144320
        },
        {
            "buffer" : 0,
            "byteLength" : 44772,
            "byteOffset" : 175808
        },
        {
            "buffer" : 0,
            "byteLength" : 44772,
            "byteOffset" : 220580
        },
        {
            "buffer" : 0,
            "byteLength" : 29848,
            "byteOffset" : 265352
        },
        {
            "buffer" : 0,
            "byteLength" : 25584,
            "byteOffset" : 295200
        },
        {
            "buffer" : 0,
            "byteLength" : 47232,
            "byteOffset" : 320784
        },
        {
            "buffer" : 0,
            "byteLength" : 47232,
            "byteOffset" : 368016
        },
        {
            "buffer" : 0,
            "byteLength" : 31488,
            "byteOffset" : 415248
        },
        {
            "buffer" : 0,
            "byteLength" : 25584,
            "byteOffset" : 446736
        }
    ],
    "buffers" : [
        {
            "byteLength" : 472320,
            "uri" : "data:application/octet-stream;base64,"
        }
    ]
}
